{
  "accessors": [
    {
      "bufferView": 1,
      "componentType": 5126,
      "count": 52818,
      "max": [
        3.366482734680176,
        0.969779908657074,
        7.868426322937012
      ],
      "min": [
        -3.365781784057617,
        -1.706607699394226,
        -8.006155967712402
      ],
      "type": "VEC3"
    },
    {
      "bufferView": 1,
      "byteOffset": 633816,
      "componentType": 5126,
      "count": 52818,
      "max": [
        0.9999726414680481,
        0.9999884963035583,
        0.9999991655349731
      ],
      "min": [
        -0.9999741911888123,
        -0.9999186992645264,
        -0.9999964833259583
      ],
      "type": "VEC3"
    },
    {
      "bufferView": 0,
      "componentType": 5125,
      "count": 290724,
      "type": "SCALAR"
    }
  ],
  "asset": {
    "extras": {
      "author": "Ruslan Gadzhiev (https://sketchfab.com/ruslangadzhiev)",
      "license": "CC-BY-4.0 (http://creativecommons.org/licenses/by/4.0/)",
      "source": "https://sketchfab.com/3d-models/female-human-skeleton-zbrush-anatomy-study-5f28b52cab3e439490727e0aede55a6b",
      "title": "Female Human Skeleton - ZBrush - Anatomy Study"
    },
    "generator": "Sketchfab-13.85.0",
    "version": "2.0"
  },
  "bufferViews": [
    {
      "buffer": 0,
      "byteLength": 1162896,
      "name": "floatBufferViews",
      "target": 34963
    },
    {
      "buffer": 0,
      "byteLength": 1267632,
      "byteOffset": 1162896,
      "byteStride": 12,
      "name": "floatBufferViews",
      "target": 34962
    }
  ],
  "buffers": [
    {
      "byteLength": 2430528,
      "uri": "scene.bin"
    }
  ],
  "extensionsRequired": [
    "KHR_materials_pbrSpecularGlossiness"
  ],
  "extensionsUsed": [
    "KHR_materials_pbrSpecularGlossiness"
  ],
  "materials": [
    {
      "doubleSided": true,
      "extensions": {
        "KHR_materials_pbrSpecularGlossiness": {
          "diffuseFactor": [
            0.605328385,
            0.5344511318,
            0.3050161472,
            1.0
          ],
          "glossinessFactor": 0.4590320122,
          "specularFactor": [
            0.1114710366,
            0.1114710366,
            0.1114710366
          ]
        }
      },
      "name": "material_0"
    }
  ],
  "meshes": [
    {
      "name": "Object_0",
      "primitives": [
        {
          "attributes": {
            "NORMAL": 1,
            "POSITION": 0
          },
          "indices": 2,
          "material": 0,
          "mode": 4
        }
      ]
    }
  ],
  "nodes": [
    {
      "children": [
        1
      ],
      "matrix": [
        1.0,
        0.0,
        0.0,
        0.0,
        0.0,
        2.220446049250313e-16,
        -1.0,
        0.0,
        0.0,
        1.0,
        2.220446049250313e-16,
        0.0,
        0.0,
        0.0,
        0.0,
        1.0
      ],
      "name": "Sketchfab_model"
    },
    {
      "children": [
        2
      ],
      "name": "female_skeleton_first_anatomy_study.OBJ.cleaner.gles"
    },
    {
      "mesh": 0,
      "name": "Object_2"
    }
  ],
  "scene": 0,
  "scenes": [
    {
      "name": "Sketchfab_Scene",
      "nodes": [
        0
      ]
    }
  ]
}
