{"scene":0,"asset":{"generator":"ImageToStl.com","version":"2.0"},"scenes":[{"name":"Scene","nodes":[0]}],"nodes":[{"name":"Node0","children":[1]},{"name":"Node1","mesh":0}],"materials":[{"name":"x1","pbrMetallicRoughness":{"baseColorFactor":[0.85,0.85,0.85,1.0],"metallicFactor":0.05,"roughnessFactor":0.5},"doubleSided":true}],"meshes":[{"name":"Mesh0","primitives":[{"indices":2,"material":0,"attributes":{"POSITION":0,"NORMAL":1}}]}],"accessors":[{"bufferView":0,"componentType":5126,"count":24461,"type":"VEC3","min":[-5.8425,-0.0566,-1.8531],"max":[5.8425,20.6841,1.917]},{"bufferView":1,"componentType":5126,"count":24461,"type":"VEC3"},{"bufferView":2,"componentType":5123,"count":146754,"type":"SCALAR"}],"bufferViews":[{"target":34962,"buffer":0,"byteLength":293532,"byteOffset":0},{"target":34962,"buffer":0,"byteLength":293532,"byteOffset":293532},{"target":34963,"buffer":0,"byteLength":293508,"byteOffset":587064}],"buffers":[{"byteLength":880572,"uri":"data:application/octet-stream;base64,"}]}